<?xml version="1.0" encoding="UTF-8" standalone="no"?>
<!DOCTYPE svg PUBLIC "-//W3C//DTD SVG 1.1//EN" "http://www.w3.org/Graphics/SVG/1.1/DTD/svg11.dtd">
<svg width="100%" height="100%" viewBox="0 0 128 128" version="1.1" xmlns="http://www.w3.org/2000/svg" xmlns:xlink="http://www.w3.org/1999/xlink" xml:space="preserve" xmlns:serif="http://www.serif.com/" style="fill-rule:evenodd;clip-rule:evenodd;stroke-linejoin:round;stroke-miterlimit:2;">
    <g transform="matrix(1,0,0,1,-854,-1183)">
        <g transform="matrix(0.520325,0,0,0.520325,409.642,567.455)">
            <rect id="icon" x="854" y="1183" width="246" height="246" style="fill:none;"/>
            <clipPath id="_clip1">
                <rect id="icon1" serif:id="icon" x="854" y="1183" width="246" height="246"/>
            </clipPath>
            <g clip-path="url(#_clip1)">
                <g transform="matrix(2.13913,0,0,2.10256,-1000.63,-1327.46)">
                    <path d="M982,1201.31C982,1199.37 981.243,1197.51 979.895,1196.14C978.547,1194.77 976.719,1194 974.812,1194L874.188,1194C872.281,1194 870.453,1194.77 869.105,1196.14C867.757,1197.51 867,1199.37 867,1201.31L867,1303.69C867,1305.63 867.757,1307.49 869.105,1308.86C870.453,1310.23 872.281,1311 874.188,1311L974.812,1311C976.719,1311 978.547,1310.23 979.895,1308.86C981.243,1307.49 982,1305.63 982,1303.69L982,1201.31Z" style="fill:rgb(2,44,77);"/>
                </g>
                <g transform="matrix(1.83495,-0.571448,0.571448,1.83495,-1420.08,-457.597)">
                    <g>
                        <g transform="matrix(0.294451,0,0,0.395246,745.087,1130.47)">
                            <g>
                                <g transform="matrix(0.929919,0,0,0.692771,-326.383,-205.947)">
                                    <path d="M1040.78,660.455C1047.91,659.311 1055.25,659.72 1062.26,661.412C1071.14,663.556 1079.47,667.724 1086.88,673.035C1099.5,682.082 1109.68,694.481 1116.7,708.29C1120.87,716.5 1123.97,725.271 1125.81,734.296C1127.56,742.881 1128.17,751.732 1127.34,760.463C1125.63,778.309 1117.25,796.385 1101.4,805.803C1098.82,807.332 1096.09,808.6 1093.26,809.574C1086.85,811.781 1079.98,812.462 1073.24,811.849C1066.12,811.201 1059.17,809.148 1052.69,806.153C1044.53,802.38 1037.1,797.113 1030.48,791.056C1020.81,782.201 1012.69,771.543 1006.76,759.837C1003.35,753.093 1000.66,745.97 998.874,738.624C997.163,731.602 996.274,724.359 996.445,717.128C996.902,697.916 1005.46,678.222 1022.01,667.593C1027.69,663.946 1034.12,661.523 1040.78,660.455Z" style="fill:rgb(6,187,110);"/>
                                </g>
                                <g transform="matrix(0.929919,0,0,0.692771,-398.179,-194.261)">
                                    <path d="M1048,673.648C1055.12,672.747 1062.39,673.162 1069.39,674.736C1091.91,679.801 1111.16,696.388 1121.81,716.57C1125.62,723.789 1128.39,731.571 1129.89,739.597C1131.31,747.174 1131.6,754.997 1130.44,762.629C1128.04,778.509 1118.94,793.258 1104.49,800.771C1101.37,802.391 1098.07,803.649 1094.66,804.524C1088.12,806.206 1081.27,806.482 1074.58,805.649C1067.54,804.772 1060.67,802.689 1054.23,799.758C1045.02,795.574 1036.63,789.658 1029.26,782.759C1021.61,775.59 1014.93,767.257 1009.96,758.009C1006.85,752.24 1004.41,746.095 1002.89,739.717C1001.46,733.74 1000.86,727.55 1001.33,721.417C1002.68,703.799 1013.34,687.797 1028.96,679.578C1034.88,676.464 1041.37,674.486 1048,673.648Z" style="fill:rgb(6,187,110);"/>
                                </g>
                                <g transform="matrix(0.929919,0,0,0.692771,-467.561,-217.184)">
                                    <path d="M1036.66,685.706C1043.53,684.379 1050.6,684.17 1057.53,685.029C1079.28,687.723 1099.44,700.808 1111.72,718.816C1115.98,725.064 1119.34,731.962 1121.43,739.236C1123.33,745.821 1124.2,752.746 1123.63,759.591C1123.28,763.89 1122.34,768.145 1120.79,772.173C1115.86,785.002 1104.87,794.27 1091.72,797.913C1085.29,799.696 1078.54,800.214 1071.88,799.822C1064.94,799.413 1058.07,798.022 1051.45,795.911C1040.55,792.435 1030.25,787.006 1021.06,780.214C1014.44,775.32 1008.31,769.646 1003.31,763.087C999.722,758.378 996.711,753.187 994.701,747.606C992.851,742.47 991.878,737.01 992.069,731.544C992.652,714.835 1004.02,700.286 1018.23,692.368C1023.97,689.175 1030.22,686.95 1036.66,685.706Z" style="fill:rgb(6,187,110);"/>
                                </g>
                                <g transform="matrix(0.929919,0,0,0.692771,-441.618,-266.175)">
                                    <path d="M1005.8,678.505C1012.47,676.211 1019.57,675.236 1026.61,675.598C1049.5,676.771 1070.25,691.319 1083.52,709.317C1088.44,715.985 1092.5,723.309 1095.46,731.048C1098.28,738.426 1100.13,746.228 1100.54,754.13C1101.35,769.526 1096.11,785.262 1083.82,795.109C1081.06,797.324 1078.02,799.189 1074.81,800.681C1068.87,803.44 1062.39,804.938 1055.87,805.461C1048.76,806.032 1041.56,805.462 1034.57,804.052C1023.3,801.777 1012.45,797.319 1002.65,791.312C994.816,786.505 987.562,780.621 981.597,773.604C977.331,768.585 973.732,762.981 971.117,756.928C968.598,751.098 967.011,744.867 966.539,738.53C965.141,719.762 973.647,700.612 988.021,688.576C993.273,684.179 999.315,680.732 1005.8,678.505Z" style="fill:rgb(6,187,110);"/>
                                </g>
                                <g transform="matrix(0.929919,0,0,0.692771,-380.079,-238.308)">
                                    <path d="M1021.56,663.903C1028.49,662.124 1035.75,661.801 1042.84,662.792C1051.85,664.054 1060.49,667.413 1068.31,672.03C1081.05,679.556 1091.78,690.413 1099.72,702.863C1104.44,710.28 1108.22,718.323 1110.82,726.727C1113.26,734.629 1114.69,742.89 1114.68,751.173C1114.68,767.829 1108.32,784.931 1094.35,794.795C1091.74,796.634 1088.93,798.179 1085.99,799.403C1079.8,801.981 1073.07,803.129 1066.37,803.136C1059.36,803.144 1052.36,801.925 1045.67,799.84C1036.71,797.045 1028.25,792.683 1020.54,787.355C1010.59,780.482 1001.69,771.903 994.797,761.947C990.668,755.986 987.254,749.512 984.817,742.677C982.528,736.258 981.107,729.516 980.783,722.702C979.882,703.714 987.969,684.197 1003.33,672.653C1008.76,668.575 1014.98,665.59 1021.56,663.903Z" style="fill:rgb(6,187,110);"/>
                                </g>
                                <g transform="matrix(0.929919,0,0,0.692771,-368.012,-260.782)">
                                    <path d="M1005.43,654.479C1012.2,652.268 1019.41,651.588 1026.49,652.332C1035.56,653.285 1044.29,656.525 1052.18,661.039C1065.39,668.597 1076.51,679.7 1084.94,692.309C1090.06,699.977 1094.25,708.287 1097.32,716.986C1100.22,725.211 1102.13,733.826 1102.65,742.541C1103.67,759.807 1098.74,778.368 1084.97,789.748C1082.61,791.7 1080.03,793.395 1077.3,794.794C1071.33,797.861 1064.69,799.493 1058,799.927C1050.98,800.383 1043.9,799.551 1037.1,797.804C1028.55,795.609 1020.39,791.96 1012.86,787.391C1001.59,780.56 991.513,771.584 983.693,760.964C979.158,754.806 975.382,748.078 972.593,740.953C969.882,734.026 968.11,726.721 967.481,719.304C965.791,699.345 972.675,677.864 987.993,664.454C993.068,660.011 999.011,656.574 1005.43,654.479Z" style="fill:rgb(6,187,110);"/>
                                </g>
                                <g transform="matrix(0.929919,0,0,0.692771,-321.026,-256.098)">
                                    <path d="M1006.51,640.852C1013.22,638.761 1020.35,638.271 1027.31,639.196C1036.58,640.43 1045.4,644.096 1053.32,648.989C1066.89,657.382 1078.14,669.414 1086.66,682.838C1092.01,691.278 1096.35,700.381 1099.5,709.868C1102.49,718.872 1104.42,728.271 1104.89,737.757C1105.79,756.107 1100.78,776.29 1085.97,788.342C1083.79,790.125 1081.42,791.688 1078.91,792.993C1073.04,796.054 1066.49,797.665 1059.89,798.005C1052.7,798.376 1045.47,797.28 1038.6,795.182C1030.14,792.604 1022.18,788.51 1014.89,783.542C1003.29,775.637 993.187,765.423 985.419,753.729C980.95,747 977.243,739.756 974.465,732.169C971.753,724.759 969.925,717.012 969.185,709.152C967.239,688.485 973.041,665.49 988.776,651.111C993.863,646.463 999.922,642.904 1006.51,640.852Z" style="fill:rgb(6,187,110);"/>
                                </g>
                                <g transform="matrix(0.929919,0,0,0.692771,-372.912,-287.56)">
                                    <path d="M985.871,647.088C992.377,644.393 999.453,643.241 1006.48,643.641C1023.53,644.611 1039.16,654.117 1051.23,665.656C1053.63,667.949 1055.93,670.356 1058.11,672.86C1060.77,675.918 1063.26,679.119 1065.59,682.442C1071.03,690.232 1075.56,698.678 1079.03,707.528C1082.33,715.967 1084.69,724.818 1085.7,733.834C1087.72,751.782 1084.08,771.725 1070.46,784.584C1068.43,786.509 1066.2,788.233 1063.82,789.721C1058.11,793.298 1051.61,795.478 1044.95,796.422C1037.99,797.409 1030.86,797.079 1023.96,795.782C1015.6,794.211 1007.53,791.217 1000.01,787.282C987.874,780.937 976.956,772.067 968.489,761.287C963.612,755.079 959.547,748.229 956.495,740.946C953.47,733.731 951.443,726.094 950.557,718.318C948.166,697.328 954.102,674.106 969.038,658.68C973.811,653.751 979.522,649.718 985.871,647.088Z" style="fill:rgb(6,187,110);"/>
                                </g>
                                <g transform="matrix(0.929919,0,0,0.692771,-260.089,-317.825)">
                                    <path d="M873.39,1126.28C886.362,1097.34 896.341,1066.99 901.662,1035.68C906.38,1007.92 907.283,979.62 904.712,951.586C899.991,944.684 895.061,937.937 889.939,931.328C886.955,927.48 885.62,921.604 888.795,917.451C891.994,913.267 898.062,913.089 902.497,915.203C903.158,915.519 903.818,915.835 904.478,916.152C902.567,898.236 899.527,880.455 895.774,862.838C894.597,857.313 897.62,851.437 903.454,850.467C909.806,849.411 916.159,853.964 918.882,859.478C925.589,873.06 931.898,886.843 937.627,900.868C937.753,900.638 937.88,900.408 938.006,900.177C940.985,894.73 948.096,894.366 953.013,897.304C958.515,900.592 962.349,907.73 960.81,914.144C958.983,921.762 956.952,929.321 954.699,936.824C963.337,973.457 967.034,1011.18 964.588,1048.78C962.231,1085 954.388,1120.67 942.681,1154.99C919.584,1145.42 896.487,1135.85 873.39,1126.28Z" style="fill:rgb(187,95,26);"/>
                                </g>
                            </g>
                        </g>
                    </g>
                </g>
            </g>
        </g>
    </g>
</svg>
