<svg xmlns="http://www.w3.org/2000/svg" xmlns:svg="http://www.w3.org/2000/svg" id="svg2" width="16" height="16" version="1.1" viewBox="0 0 16 16"><metadata id="metadata12"/><path style="fill:#fc9c9c;fill-opacity:.99607843;fill-rule:evenodd;stroke:none;stroke-width:1px;stroke-linecap:butt;stroke-linejoin:miter;stroke-opacity:1" id="path4142" d="M 3,15 C 3,15 3.1390243,13.835072 2.827418,12.420858 2.5397814,11.150462 1,9 1,9 1,9 2.9698195,10.552501 3.5930323,11.679078 4.5757909,13.021382 5,15 5,15 Z"/><path style="fill:#fc9c9c;fill-opacity:.99607843;fill-rule:evenodd;stroke:none;stroke-width:1px;stroke-linecap:butt;stroke-linejoin:miter;stroke-opacity:1" id="path4144" d="M 5,15 C 5,15 5.2636669,12.287637 5,10.513877 4.8082422,8.8359968 3.4793944,5 3.4793944,5 c 0,0 1.8082423,2.5214194 2.5206056,5 1,3.235912 1,5 1,5 z"/><path style="fill:#fc9c9c;fill-opacity:.99607843;fill-rule:evenodd;stroke:none;stroke-width:1px;stroke-linecap:butt;stroke-linejoin:miter;stroke-opacity:1" id="path4146" d="M 7,15 C 7,15 7.5561735,6.4731267 7.5731227,5.3205843 7.6578684,4.2019402 8,1.1355932 8,1.1355932 c 0,0 0.3992971,3.1361329 0.4501446,4.2886753 C 8.5857378,7.0852854 9,15 9,15 Z"/><path style="fill:#fc9c9c;fill-opacity:.99607843;fill-rule:evenodd;stroke:none;stroke-width:1px;stroke-linecap:butt;stroke-linejoin:miter;stroke-opacity:1" id="path4148" d="M 9,15 C 9,15 9.5761564,11.857317 10.007611,10.562952 10.747482,8.4130973 12,6 12,6 12,6 11.115351,9.5993511 10.923593,11.181353 10.659926,13.003052 11,15 11,15 Z"/><path style="fill:#fc9c9c;fill-opacity:.99607843;fill-rule:evenodd;stroke:none;stroke-width:1px;stroke-linecap:butt;stroke-linejoin:miter;stroke-opacity:1" id="path4148-1" d="m 11,15 c 0,0 -0.08106,-0.693375 0.733907,-2.395225 C 12.596817,10.735137 15,9 15,9 15,9 13.425134,10.982994 12.925634,12.583274 12.434254,14.309094 13,15 13,15 Z"/></svg>