<?xml version="1.0" standalone="no"?>
<!DOCTYPE svg PUBLIC "-//W3C//DTD SVG 1.1//EN" "http://www.w3.org/Graphics/SVG/1.1/DTD/svg11.dtd">
<svg width="324" height="324" version="1.1" xmlns="http://www.w3.org/2000/svg">
  <title>20 cells diameter theta maze</title>
  <desc>20 cells diameter theta maze generated by The Maze Generator Website (http://www.mazegenerator.net/).</desc>
  <g fill="none" stroke="#000000" stroke-width="2" stroke-linecap="square">
    <path d="M 140.37258300203047,185.62741699796953 A 32,32 0 1,1 163,195" />
    <path d="M 129.05887450304573,129.05887450304573 A 48,48 0 0,1 163,115" />
    <path d="M 196.94112549695427,129.05887450304573 A 48,48 0 0,1 207.34621756054176,181.3688047535243" />
    <path d="M 196.94112549695427,196.94112549695427 A 48,48 0 0,1 129.05887450304573,196.94112549695427" />
    <path d="M 118.65378243945824,181.36880475352433 A 48,48 0 0,1 118.65378243945824,144.63119524647567" />
    <path d="M 138.50826032863421,103.87170991927766 A 64,64 0 0,1 163,99" />
    <path d="M 222.12829008072237,138.50826032863427 A 64,64 0 0,1 227,163" />
    <path d="M 208.25483399593904,208.25483399593904 A 64,64 0 0,1 163,227" />
    <path d="M 103.87170991927766,138.50826032863424 A 64,64 0 0,1 117.74516600406095,117.74516600406096" />
    <path d="M 147.39277423870971,84.537177567741566 A 80,80 0 0,1 163,83" />
    <path d="M 178.60722576129027,84.537177567741566 A 80,80 0 0,1 229.51756898420362,118.55438135843181" />
    <path d="M 241.46282243225843,147.39277423870973 A 80,80 0 0,1 178.60722576129029,241.46282243225843" />
    <path d="M 147.39277423870973,241.46282243225843 A 80,80 0 0,1 118.55438135843184,229.51756898420365" />
    <path d="M 106.43145750507621,219.5685424949238 A 80,80 0 0,1 96.482431015796379,207.44561864156816" />
    <path d="M 89.089637399097072,193.61467458920723 A 80,80 0 0,1 84.537177567741566,178.60722576129029" />
    <path d="M 84.537177567741566,147.39277423870973 A 80,80 0 0,1 89.089637399097072,132.3853254107928" />
    <path d="M 106.4314575050762,106.43145750507621 A 80,80 0 0,1 132.38532541079277,89.089637399097086" />
    <path d="M 163,67 A 96,96 0 0,1 216.33474236988181,83.178917218955661" />
    <path d="M 242.82108278104434,109.66525763011819 A 96,96 0 0,1 199.73760950704863,251.69243512108352" />
    <path d="M 181.72867091354834,257.15538691871012 A 96,96 0 0,1 144.27132908645169,257.15538691871012" />
    <path d="M 74.30756487891648,126.26239049295137 A 96,96 0 0,1 144.27132908645166,68.844613081289879" />
    <path d="M 141.14988393419358,53.152048594838206 A 112,112 0 0,1 256.12459657788509,100.77613390180454" />
    <path d="M 266.4745076412641,120.13945557510994 A 112,112 0 0,1 275,163" />
    <path d="M 266.47450764126415,205.86054442489004 A 112,112 0 0,1 163,275" />
    <path d="M 141.14988393419361,272.84795140516178 A 112,112 0 0,1 120.13945557510996,266.47450764126415" />
    <path d="M 100.77613390180459,256.12459657788509 A 112,112 0 0,1 69.875403422114928,225.22386609819546" />
    <path d="M 59.5254923587359,205.86054442489012 A 112,112 0 0,1 53.152048594838192,184.85011606580642" />
    <path d="M 51,163.00000000000003 A 112,112 0 0,1 100.77613390180454,69.875403422114928" />
    <path d="M 163,35 A 128,128 0 0,1 253.50966799187808,72.490332008121911" />
    <path d="M 269.4281103747258,91.8870101734909 A 128,128 0 0,1 281.25658016144473,114.0165206572685" />
    <path d="M 291,163 A 128,128 0 0,1 281.25658016144473,211.98347934273147" />
    <path d="M 269.4281103747258,234.11298982650905 A 128,128 0 0,1 211.9834793427315,281.25658016144473" />
    <path d="M 187.97156121806447,288.5405158916135 A 128,128 0 0,1 138.02843878193556,288.5405158916135" />
    <path d="M 114.01652065726853,281.25658016144473 A 128,128 0 0,1 72.490332008121925,253.5096679918781" />
    <path d="M 37.459484108386519,187.97156121806447 A 128,128 0 0,1 35,163.00000000000003" />
    <path d="M 37.459484108386505,138.02843878193556 A 128,128 0 0,1 44.743419838555312,114.01652065726847" />
    <path d="M 91.887010173490921,56.57188962527421 A 128,128 0 0,1 138.02843878193554,37.459484108386519" />
    <path d="M 134.90699362967746,21.766919621934818 A 144,144 0 0,1 230.88113010294364,36.003337933836875" />
    <path d="M 243.0021135548227,43.268375828433477 A 144,144 0 0,1 254.35263291956494,51.686494715765875" />
    <path d="M 264.82337649086287,61.176623509137158 A 144,144 0 0,1 306.30660064079632,177.11446820745672" />
    <path d="M 304.23308037806521,191.09300637032246 A 144,144 0 0,1 300.79940834543811,204.80099352464256" />
    <path d="M 296.03865268162531,218.10641426057293 A 144,144 0 0,1 230.8811301029437,289.99666206616314" />
    <path d="M 218.10641426057293,296.03865268162531 A 144,144 0 0,1 204.80099352464259,300.79940834543811" />
    <path d="M 191.09300637032251,304.23308037806521 A 144,144 0 0,1 177.11446820745675,306.30660064079632" />
    <path d="M 163.00000000000003,307 A 144,144 0 0,1 121.19900647535745,300.79940834543811" />
    <path d="M 107.8935857394271,296.03865268162531 A 144,144 0 0,1 71.647367080435075,274.31350528423411" />
    <path d="M 61.176623509137173,264.82337649086287 A 144,144 0 0,1 51.686494715765917,254.352632919565" />
    <path d="M 43.268375828433477,243.0021135548227 A 144,144 0 0,1 29.961347318374749,218.10641426057302" />
    <path d="M 25.200591654561919,204.80099352464259 A 144,144 0 0,1 19.693399359203653,177.1144682074567" />
    <path d="M 19,163.00000000000003 A 144,144 0 0,1 19.693399359203653,148.88553179254336" />
    <path d="M 21.766919621934818,134.90699362967752 A 144,144 0 0,1 25.200591654561919,121.19900647535746" />
    <path d="M 29.96134731837472,107.89358573942704 A 144,144 0 0,1 95.1188698970563,36.0033379338369" />
    <path d="M 107.89358573942698,29.961347318374749 A 144,144 0 0,1 121.19900647535741,25.200591654561919" />
    <path d="M 178.68274245272968,3.7704437324484843 A 160,160 0 1,1 163,3" />
  </g>
  <g fill="none" stroke="#000000" stroke-width="2" stroke-linecap="butt">
    <line x1="163" y1="35" x2="163" y2="51" />
    <line x1="163" y1="67" x2="163" y2="99" />
    <line x1="163" y1="115" x2="163" y2="131" />
    <line x1="193.6146745892072" y1="89.089637399097057" x2="181.3688047535243" y2="118.65378243945824" />
    <line x1="238.42347789215961" y1="21.892597704263181" x2="230.88113010294364" y2="36.003337933836875" />
    <line x1="243.0021135548227" y1="43.268375828433491" x2="234.11298982650908" y2="56.57188962527421" />
    <line x1="264.82337649086287" y1="61.176623509137144" x2="253.50966799187808" y2="72.490332008121911" />
    <line x1="242.19595949289331" y1="83.804040507106677" x2="219.5685424949238" y2="106.4314575050762" />
    <line x1="208.25483399593904" y1="117.74516600406096" x2="196.94112549695427" y2="129.05887450304573" />
    <line x1="256.12459657788509" y1="100.77613390180454" x2="242.82108278104434" y2="109.66525763011818" />
    <line x1="281.25658016144473" y1="114.0165206572685" x2="266.4745076412641" y2="120.13945557510994" />
    <line x1="251.69243512108352" y1="126.26239049295137" x2="222.12829008072237" y2="138.50826032863427" />
    <line x1="304.23308037806521" y1="134.90699362967752" x2="272.84795140516178" y2="141.14988393419364" />
    <line x1="211" y1="163" x2="195" y2="163" />
    <line x1="319.92564486451687" y1="194.2144515225805" x2="304.23308037806521" y2="191.09300637032246" />
    <line x1="288.5405158916135" y1="187.97156121806441" x2="257.15538691871012" y2="181.72867091354831" />
    <line x1="296.03865268162531" y1="218.10641426057293" x2="281.25658016144473" y2="211.98347934273147" />
    <line x1="236.91036260090294" y1="193.61467458920717" x2="207.34621756054176" y2="181.3688047535243" />
    <line x1="269.4281103747258" y1="234.11298982650905" x2="256.12459657788509" y2="225.2238660981954" />
    <line x1="208.25483399593904" y1="208.25483399593904" x2="196.94112549695427" y2="196.94112549695427" />
    <line x1="238.42347789215967" y1="304.10740229573679" x2="230.8811301029437" y2="289.99666206616314" />
    <line x1="218.10641426057293" y1="296.03865268162531" x2="211.9834793427315" y2="281.25658016144473" />
    <line x1="199.73760950704863" y1="251.69243512108352" x2="193.6146745892072" y2="236.91036260090294" />
    <line x1="194.21445152258059" y1="319.92564486451687" x2="187.97156121806447" y2="288.5405158916135" />
    <line x1="184.85011606580639" y1="272.84795140516178" x2="181.72867091354834" y2="257.15538691871012" />
    <line x1="163" y1="259" x2="163" y2="227" />
    <line x1="138.02843878193556" y1="288.5405158916135" x2="141.14988393419361" y2="272.84795140516178" />
    <line x1="144.27132908645169" y1="257.15538691871012" x2="147.39277423870973" y2="241.46282243225843" />
    <line x1="116.55445163928607" y1="316.1104537171534" x2="121.19900647535746" y2="300.79940834543811" />
    <line x1="107.8935857394271" y1="296.03865268162531" x2="126.2623904929514" y2="251.69243512108352" />
    <line x1="132.38532541079283" y1="236.91036260090294" x2="138.50826032863427" y2="222.12829008072237" />
    <line x1="100.77613390180459" y1="256.12459657788509" x2="118.55438135843184" y2="229.51756898420365" />
    <line x1="61.176623509137158" y1="264.82337649086287" x2="72.490332008121925" y2="253.5096679918781" />
    <line x1="95.117749006091444" y1="230.88225099390857" x2="106.4314575050762" y2="219.5685424949238" />
    <line x1="117.74516600406096" y1="208.25483399593907" x2="140.37258300203047" y2="185.62741699796953" />
    <line x1="43.268375828433491" y1="243.0021135548227" x2="96.482431015796379" y2="207.44561864156816" />
    <line x1="29.961347318374749" y1="218.10641426057302" x2="59.5254923587359" y2="205.86054442489012" />
    <line x1="74.3075648789165" y1="199.73760950704866" x2="103.87170991927766" y2="187.49173967136579" />
    <line x1="9.8895462828465952" y1="209.44554836071399" x2="25.200591654561919" y2="204.80099352464259" />
    <line x1="21.766919621934846" y1="191.09300637032254" x2="37.459484108386519" y2="187.97156121806447" />
    <line x1="53.152048594838206" y1="184.85011606580642" x2="84.53717756774158" y2="178.60722576129029" />
    <line x1="19" y1="163.00000000000003" x2="51" y2="163.00000000000003" />
    <line x1="67" y1="163.00000000000003" x2="131" y2="163" />
    <line x1="21.766919621934818" y1="134.90699362967752" x2="37.459484108386505" y2="138.02843878193556" />
    <line x1="53.152048594838192" y1="141.14988393419364" x2="68.844613081289879" y2="144.27132908645169" />
    <line x1="9.8895462828465668" y1="116.55445163928607" x2="25.200591654561919" y2="121.19900647535746" />
    <line x1="74.30756487891648" y1="126.26239049295137" x2="89.089637399097072" y2="132.3853254107928" />
    <line x1="56.571889625274181" y1="91.887010173490964" x2="69.875403422114914" y2="100.7761339018046" />
    <line x1="83.178917218955633" y1="109.66525763011822" x2="96.482431015796365" y2="118.55438135843185" />
    <line x1="61.17662350913713" y1="61.176623509137187" x2="72.4903320081219" y2="72.490332008121939" />
    <line x1="106.43145750507618" y1="106.43145750507621" x2="129.05887450304573" y2="129.05887450304573" />
    <line x1="87.576522107840333" y1="21.892597704263238" x2="95.1188698970563" y2="36.0033379338369" />
    <line x1="107.89358573942698" y1="29.961347318374749" x2="120.13945557510988" y2="59.5254923587359" />
    <line x1="134.90699362967746" y1="21.766919621934846" x2="138.02843878193554" y2="37.459484108386519" />
    <line x1="141.14988393419358" y1="53.152048594838206" x2="147.39277423870971" y2="84.53717756774158" />
  </g>
</svg>
