{
    "asset" : {
        "generator" : "Khronos glTF Blender I/O v0.9.36",
        "version" : "2.0"
    },
    "scene" : 0,
    "scenes" : [
        {
            "name" : "Scene",
            "nodes" : [
                0
            ]
        }
    ],
    "nodes" : [
        {
            "mesh" : 0,
            "name" : "r_controller_ply"
        }
    ],
    "materials" : [
        {
            "doubleSided" : true,
            "name" : "controllerMTL",
            "pbrMetallicRoughness" : {
                "baseColorTexture" : {
                    "index" : 0,
                    "texCoord" : 0
                },
                "metallicFactor" : 0,
                "roughnessFactor" : 0.699999988079071
            }
        }
    ],
    "meshes" : [
        {
            "name" : "Mesh.001",
            "primitives" : [
                {
                    "attributes" : {
                        "POSITION" : 0,
                        "NORMAL" : 1,
                        "TEXCOORD_0" : 2
                    },
                    "indices" : 3,
                    "material" : 0
                }
            ]
        }
    ],
    "textures" : [
        {
            "source" : 0
        }
    ],
    "images" : [
        {
            "mimeType" : "image/png",
            "name" : "OculusQuestTouchControllerTexture",
            "uri" : "OculusQuestTouchControllerTexture.png"
        }
    ],
    "accessors" : [
        {
            "bufferView" : 0,
            "componentType" : 5126,
            "count" : 2467,
            "max" : [
                0.05477675795555115,
                0.06537660211324692,
                0.07142707705497742
            ],
            "min" : [
                -0.035776760429143906,
                -0.0675957128405571,
                -0.036014944314956665
            ],
            "type" : "VEC3"
        },
        {
            "bufferView" : 1,
            "componentType" : 5126,
            "count" : 2467,
            "type" : "VEC3"
        },
        {
            "bufferView" : 2,
            "componentType" : 5126,
            "count" : 2467,
            "type" : "VEC2"
        },
        {
            "bufferView" : 3,
            "componentType" : 5123,
            "count" : 10005,
            "type" : "SCALAR"
        }
    ],
    "bufferViews" : [
        {
            "buffer" : 0,
            "byteLength" : 29604,
            "byteOffset" : 0
        },
        {
            "buffer" : 0,
            "byteLength" : 29604,
            "byteOffset" : 29604
        },
        {
            "buffer" : 0,
            "byteLength" : 19736,
            "byteOffset" : 59208
        },
        {
            "buffer" : 0,
            "byteLength" : 20010,
            "byteOffset" : 78944
        }
    ],
    "buffers" : [
        {
            "byteLength" : 98956,
            "uri" : "OculusQuestTouchController_Right.bin"
        }
    ]
}
