{
    "asset" : {
        "generator" : "Khronos glTF Blender I/O v1.3.48",
        "version" : "2.0"
    },
    "scene" : 0,
    "scenes" : [
        {
            "name" : "Scene",
            "nodes" : [
                0,
                1,
                2,
                3,
                4,
                5,
                6
            ]
        }
    ],
    "nodes" : [
        {
            "mesh" : 0,
            "name" : "l_controller_ply",
            "rotation" : [
                0,
                1,
                0,
                -1.6292068494294654e-07
            ]
        },
        {
            "mesh" : 1,
            "name" : "l_controller_Joy",
            "rotation" : [
                0,
                1,
                0,
                -1.6292068494294654e-07
            ],
            "translation" : [
                -0.018028726801276207,
                -0.002662873826920986,
                -0.008652731776237488
            ]
        },
        {
            "mesh" : 2,
            "name" : "l_controller_Menu",
            "rotation" : [
                0,
                1,
                0,
                -1.6292068494294654e-07
            ]
        },
        {
            "mesh" : 3,
            "name" : "l_controller_X",
            "rotation" : [
                0,
                1,
                0,
                -1.6292068494294654e-07
            ]
        },
        {
            "mesh" : 4,
            "name" : "l_controller_Y",
            "rotation" : [
                0,
                1,
                0,
                -1.6292068494294654e-07
            ]
        },
        {
            "mesh" : 5,
            "name" : "l_controller_Trigger",
            "rotation" : [
                0,
                1,
                0,
                -1.6292068494294654e-07
            ],
            "translation" : [
                -0.009500669315457344,
                -0.011679206043481827,
                -0.030734248459339142
            ]
        },
        {
            "mesh" : 6,
            "name" : "l_controller_Grip",
            "rotation" : [
                0,
                1,
                0,
                -1.6292068494294654e-07
            ]
        }
    ],
    "materials" : [
        {
            "doubleSided" : true,
            "emissiveFactor" : [
                0,
                0,
                0
            ],
            "name" : "controllerMTL",
            "pbrMetallicRoughness" : {
                "baseColorTexture" : {
                    "index" : 0,
                    "texCoord" : 0
                },
                "metallicFactor" : 0,
                "roughnessFactor" : 0.699999988079071
            }
        }
    ],
    "meshes" : [
        {
            "name" : "Mesh",
            "primitives" : [
                {
                    "attributes" : {
                        "POSITION" : 0,
                        "NORMAL" : 1,
                        "TEXCOORD_0" : 2
                    },
                    "indices" : 3,
                    "material" : 0
                }
            ]
        },
        {
            "name" : "Mesh.001",
            "primitives" : [
                {
                    "attributes" : {
                        "POSITION" : 4,
                        "NORMAL" : 5,
                        "TEXCOORD_0" : 6
                    },
                    "indices" : 7,
                    "material" : 0
                }
            ]
        },
        {
            "name" : "Mesh.002",
            "primitives" : [
                {
                    "attributes" : {
                        "POSITION" : 8,
                        "NORMAL" : 9,
                        "TEXCOORD_0" : 10
                    },
                    "indices" : 11,
                    "material" : 0
                }
            ]
        },
        {
            "name" : "Mesh.003",
            "primitives" : [
                {
                    "attributes" : {
                        "POSITION" : 12,
                        "NORMAL" : 13,
                        "TEXCOORD_0" : 14
                    },
                    "indices" : 15,
                    "material" : 0
                }
            ]
        },
        {
            "name" : "Mesh.004",
            "primitives" : [
                {
                    "attributes" : {
                        "POSITION" : 16,
                        "NORMAL" : 17,
                        "TEXCOORD_0" : 18
                    },
                    "indices" : 19,
                    "material" : 0
                }
            ]
        },
        {
            "name" : "Mesh.005",
            "primitives" : [
                {
                    "attributes" : {
                        "POSITION" : 20,
                        "NORMAL" : 21,
                        "TEXCOORD_0" : 22
                    },
                    "indices" : 23,
                    "material" : 0
                }
            ]
        },
        {
            "name" : "Mesh.006",
            "primitives" : [
                {
                    "attributes" : {
                        "POSITION" : 24,
                        "NORMAL" : 25,
                        "TEXCOORD_0" : 26
                    },
                    "indices" : 27,
                    "material" : 0
                }
            ]
        }
    ],
    "textures" : [
        {
            "source" : 0
        }
    ],
    "images" : [
        {
            "bufferView" : 4,
            "mimeType" : "image/png",
            "name" : "OculusQuestTouchControllerTexture_Color"
        }
    ],
    "accessors" : [
        {
            "bufferView" : 0,
            "componentType" : 5126,
            "count" : 1795,
            "max" : [
                0.05477675795555115,
                0.06537660211324692,
                0.03601494058966637
            ],
            "min" : [
                -0.035776760429143906,
                -0.0675957128405571,
                -0.07142707705497742
            ],
            "type" : "VEC3"
        },
        {
            "bufferView" : 1,
            "componentType" : 5126,
            "count" : 1795,
            "type" : "VEC3"
        },
        {
            "bufferView" : 2,
            "componentType" : 5126,
            "count" : 1795,
            "type" : "VEC2"
        },
        {
            "bufferView" : 3,
            "componentType" : 5123,
            "count" : 7206,
            "type" : "SCALAR"
        },
        {
            "bufferView" : 5,
            "componentType" : 5126,
            "count" : 178,
            "max" : [
                0.008330805227160454,
                0.012130743823945522,
                0.009519988670945168
            ],
            "min" : [
                -0.008506308309733868,
                -0.0007534334436058998,
                -0.007092342711985111
            ],
            "type" : "VEC3"
        },
        {
            "bufferView" : 6,
            "componentType" : 5126,
            "count" : 178,
            "type" : "VEC3"
        },
        {
            "bufferView" : 7,
            "componentType" : 5126,
            "count" : 178,
            "type" : "VEC2"
        },
        {
            "bufferView" : 8,
            "componentType" : 5123,
            "count" : 777,
            "type" : "SCALAR"
        },
        {
            "bufferView" : 9,
            "componentType" : 5126,
            "count" : 86,
            "max" : [
                0.014180857688188553,
                -0.005573378410190344,
                -0.018448596820235252
            ],
            "min" : [
                0.004819163586944342,
                -0.0066420757211744785,
                -0.02795332856476307
            ],
            "type" : "VEC3"
        },
        {
            "bufferView" : 10,
            "componentType" : 5126,
            "count" : 86,
            "type" : "VEC3"
        },
        {
            "bufferView" : 11,
            "componentType" : 5126,
            "count" : 86,
            "type" : "VEC2"
        },
        {
            "bufferView" : 12,
            "componentType" : 5123,
            "count" : 156,
            "type" : "SCALAR"
        },
        {
            "bufferView" : 13,
            "componentType" : 5126,
            "count" : 85,
            "max" : [
                0.006786967162042856,
                -0.0010837174486368895,
                0.0006300387904047966
            ],
            "min" : [
                -0.003738589584827423,
                -0.005529582966119051,
                -0.009923658333718777
            ],
            "type" : "VEC3"
        },
        {
            "bufferView" : 14,
            "componentType" : 5126,
            "count" : 85,
            "type" : "VEC3"
        },
        {
            "bufferView" : 15,
            "componentType" : 5126,
            "count" : 85,
            "type" : "VEC2"
        },
        {
            "bufferView" : 16,
            "componentType" : 5123,
            "count" : 324,
            "type" : "SCALAR"
        },
        {
            "bufferView" : 17,
            "componentType" : 5126,
            "count" : 85,
            "max" : [
                0.0027553767431527376,
                0.0012069958029314876,
                0.014464659616351128
            ],
            "min" : [
                -0.007775479461997747,
                -0.003159749088808894,
                0.00393096124753356
            ],
            "type" : "VEC3"
        },
        {
            "bufferView" : 18,
            "componentType" : 5126,
            "count" : 85,
            "type" : "VEC3"
        },
        {
            "bufferView" : 19,
            "componentType" : 5126,
            "count" : 85,
            "type" : "VEC2"
        },
        {
            "bufferView" : 20,
            "componentType" : 5123,
            "count" : 324,
            "type" : "SCALAR"
        },
        {
            "bufferView" : 21,
            "componentType" : 5126,
            "count" : 226,
            "max" : [
                0.013063314370810986,
                0.00321176927536726,
                -0.0006816647946834564
            ],
            "min" : [
                -0.013064645230770111,
                -0.021690383553504944,
                -0.017671145498752594
            ],
            "type" : "VEC3"
        },
        {
            "bufferView" : 22,
            "componentType" : 5126,
            "count" : 226,
            "type" : "VEC3"
        },
        {
            "bufferView" : 23,
            "componentType" : 5126,
            "count" : 226,
            "type" : "VEC2"
        },
        {
            "bufferView" : 24,
            "componentType" : 5123,
            "count" : 1050,
            "type" : "SCALAR"
        },
        {
            "bufferView" : 25,
            "componentType" : 5126,
            "count" : 208,
            "max" : [
                0.002870253287255764,
                -0.020102789625525475,
                -0.009994223713874817
            ],
            "min" : [
                -0.009756376966834068,
                -0.039277367293834686,
                -0.03487386927008629
            ],
            "type" : "VEC3"
        },
        {
            "bufferView" : 26,
            "componentType" : 5126,
            "count" : 208,
            "type" : "VEC3"
        },
        {
            "bufferView" : 27,
            "componentType" : 5126,
            "count" : 208,
            "type" : "VEC2"
        },
        {
            "bufferView" : 28,
            "componentType" : 5123,
            "count" : 924,
            "type" : "SCALAR"
        }
    ],
    "bufferViews" : [
        {
            "buffer" : 0,
            "byteLength" : 21540,
            "byteOffset" : 0
        },
        {
            "buffer" : 0,
            "byteLength" : 21540,
            "byteOffset" : 21540
        },
        {
            "buffer" : 0,
            "byteLength" : 14360,
            "byteOffset" : 43080
        },
        {
            "buffer" : 0,
            "byteLength" : 14412,
            "byteOffset" : 57440
        },
        {
            "buffer" : 0,
            "byteLength" : 27340,
            "byteOffset" : 71852
        },
        {
            "buffer" : 0,
            "byteLength" : 2136,
            "byteOffset" : 99192
        },
        {
            "buffer" : 0,
            "byteLength" : 2136,
            "byteOffset" : 101328
        },
        {
            "buffer" : 0,
            "byteLength" : 1424,
            "byteOffset" : 103464
        },
        {
            "buffer" : 0,
            "byteLength" : 1554,
            "byteOffset" : 104888
        },
        {
            "buffer" : 0,
            "byteLength" : 1032,
            "byteOffset" : 106444
        },
        {
            "buffer" : 0,
            "byteLength" : 1032,
            "byteOffset" : 107476
        },
        {
            "buffer" : 0,
            "byteLength" : 688,
            "byteOffset" : 108508
        },
        {
            "buffer" : 0,
            "byteLength" : 312,
            "byteOffset" : 109196
        },
        {
            "buffer" : 0,
            "byteLength" : 1020,
            "byteOffset" : 109508
        },
        {
            "buffer" : 0,
            "byteLength" : 1020,
            "byteOffset" : 110528
        },
        {
            "buffer" : 0,
            "byteLength" : 680,
            "byteOffset" : 111548
        },
        {
            "buffer" : 0,
            "byteLength" : 648,
            "byteOffset" : 112228
        },
        {
            "buffer" : 0,
            "byteLength" : 1020,
            "byteOffset" : 112876
        },
        {
            "buffer" : 0,
            "byteLength" : 1020,
            "byteOffset" : 113896
        },
        {
            "buffer" : 0,
            "byteLength" : 680,
            "byteOffset" : 114916
        },
        {
            "buffer" : 0,
            "byteLength" : 648,
            "byteOffset" : 115596
        },
        {
            "buffer" : 0,
            "byteLength" : 2712,
            "byteOffset" : 116244
        },
        {
            "buffer" : 0,
            "byteLength" : 2712,
            "byteOffset" : 118956
        },
        {
            "buffer" : 0,
            "byteLength" : 1808,
            "byteOffset" : 121668
        },
        {
            "buffer" : 0,
            "byteLength" : 2100,
            "byteOffset" : 123476
        },
        {
            "buffer" : 0,
            "byteLength" : 2496,
            "byteOffset" : 125576
        },
        {
            "buffer" : 0,
            "byteLength" : 2496,
            "byteOffset" : 128072
        },
        {
            "buffer" : 0,
            "byteLength" : 1664,
            "byteOffset" : 130568
        },
        {
            "buffer" : 0,
            "byteLength" : 1848,
            "byteOffset" : 132232
        }
    ],
    "buffers" : [
        {
            "byteLength" : 134080,
            "uri" : "data:application/octet-stream;base64,"
        }
    ]
}
