{
    "asset" : {
        "generator" : "Khronos glTF Blender I/O v1.3.48",
        "version" : "2.0"
    },
    "scene" : 0,
    "scenes" : [
        {
            "name" : "Scene",
            "nodes" : [
                0,
                1,
                2,
                3,
                4,
                5,
                6
            ]
        }
    ],
    "nodes" : [
        {
            "mesh" : 0,
            "name" : "r_controller_ply"
        },
        {
            "mesh" : 1,
            "name" : "r_controller_Joy",
            "translation" : [
                0.01802872121334076,
                -0.0029749833047389984,
                -0.008652741089463234
            ]
        },
        {
            "mesh" : 2,
            "name" : "r_controller_A"
        },
        {
            "mesh" : 3,
            "name" : "r_controller_B"
        },
        {
            "mesh" : 4,
            "name" : "r_controller_Home"
        },
        {
            "mesh" : 5,
            "name" : "r_controller_Trigger",
            "translation" : [
                0.009500655345618725,
                -0.01159834023565054,
                -0.03071369230747223
            ]
        },
        {
            "mesh" : 6,
            "name" : "r_controller_Grip"
        }
    ],
    "materials" : [
        {
            "doubleSided" : true,
            "emissiveFactor" : [
                0,
                0,
                0
            ],
            "name" : "controllerMTL",
            "pbrMetallicRoughness" : {
                "baseColorTexture" : {
                    "index" : 0,
                    "texCoord" : 0
                },
                "metallicFactor" : 0,
                "roughnessFactor" : 0.699999988079071
            }
        }
    ],
    "meshes" : [
        {
            "name" : "Mesh.001",
            "primitives" : [
                {
                    "attributes" : {
                        "POSITION" : 0,
                        "NORMAL" : 1,
                        "TEXCOORD_0" : 2
                    },
                    "indices" : 3,
                    "material" : 0
                }
            ]
        },
        {
            "name" : "Mesh.002",
            "primitives" : [
                {
                    "attributes" : {
                        "POSITION" : 4,
                        "NORMAL" : 5,
                        "TEXCOORD_0" : 6
                    },
                    "indices" : 7,
                    "material" : 0
                }
            ]
        },
        {
            "name" : "Mesh.003",
            "primitives" : [
                {
                    "attributes" : {
                        "POSITION" : 8,
                        "NORMAL" : 9,
                        "TEXCOORD_0" : 10
                    },
                    "indices" : 11,
                    "material" : 0
                }
            ]
        },
        {
            "name" : "Mesh.004",
            "primitives" : [
                {
                    "attributes" : {
                        "POSITION" : 12,
                        "NORMAL" : 13,
                        "TEXCOORD_0" : 14
                    },
                    "indices" : 15,
                    "material" : 0
                }
            ]
        },
        {
            "name" : "Mesh.005",
            "primitives" : [
                {
                    "attributes" : {
                        "POSITION" : 16,
                        "NORMAL" : 17,
                        "TEXCOORD_0" : 18
                    },
                    "indices" : 19,
                    "material" : 0
                }
            ]
        },
        {
            "name" : "Mesh.006",
            "primitives" : [
                {
                    "attributes" : {
                        "POSITION" : 20,
                        "NORMAL" : 21,
                        "TEXCOORD_0" : 22
                    },
                    "indices" : 23,
                    "material" : 0
                }
            ]
        },
        {
            "name" : "Mesh.007",
            "primitives" : [
                {
                    "attributes" : {
                        "POSITION" : 24,
                        "NORMAL" : 25,
                        "TEXCOORD_0" : 26
                    },
                    "indices" : 27,
                    "material" : 0
                }
            ]
        }
    ],
    "textures" : [
        {
            "source" : 0
        }
    ],
    "images" : [
        {
            "bufferView" : 4,
            "mimeType" : "image/png",
            "name" : "OculusQuestTouchControllerTexture_Color"
        }
    ],
    "accessors" : [
        {
            "bufferView" : 0,
            "componentType" : 5126,
            "count" : 1693,
            "max" : [
                0.05477675795555115,
                0.06537660211324692,
                0.07142707705497742
            ],
            "min" : [
                -0.035776760429143906,
                -0.0675957128405571,
                -0.036014944314956665
            ],
            "type" : "VEC3"
        },
        {
            "bufferView" : 1,
            "componentType" : 5126,
            "count" : 1693,
            "type" : "VEC3"
        },
        {
            "bufferView" : 2,
            "componentType" : 5126,
            "count" : 1693,
            "type" : "VEC2"
        },
        {
            "bufferView" : 3,
            "componentType" : 5123,
            "count" : 6579,
            "type" : "SCALAR"
        },
        {
            "bufferView" : 5,
            "componentType" : 5126,
            "count" : 187,
            "max" : [
                0.00833080429583788,
                0.012442853301763535,
                0.007092339918017387
            ],
            "min" : [
                -0.008506309241056442,
                -0.0004413239657878876,
                -0.009519990533590317
            ],
            "type" : "VEC3"
        },
        {
            "bufferView" : 6,
            "componentType" : 5126,
            "count" : 187,
            "type" : "VEC3"
        },
        {
            "bufferView" : 7,
            "componentType" : 5126,
            "count" : 187,
            "type" : "VEC2"
        },
        {
            "bufferView" : 8,
            "componentType" : 5123,
            "count" : 777,
            "type" : "SCALAR"
        },
        {
            "bufferView" : 9,
            "componentType" : 5126,
            "count" : 85,
            "max" : [
                0.0067869676277041435,
                -0.0010837174486368895,
                0.009923657402396202
            ],
            "min" : [
                -0.0037385860923677683,
                -0.005529582966119051,
                -0.0006300390232354403
            ],
            "type" : "VEC3"
        },
        {
            "bufferView" : 10,
            "componentType" : 5126,
            "count" : 85,
            "type" : "VEC3"
        },
        {
            "bufferView" : 11,
            "componentType" : 5126,
            "count" : 85,
            "type" : "VEC2"
        },
        {
            "bufferView" : 12,
            "componentType" : 5123,
            "count" : 324,
            "type" : "SCALAR"
        },
        {
            "bufferView" : 13,
            "componentType" : 5126,
            "count" : 85,
            "max" : [
                0.00275537115521729,
                0.0012069958029314876,
                -0.003930960316210985
            ],
            "min" : [
                -0.007775478530675173,
                -0.003159749088808894,
                -0.014464658685028553
            ],
            "type" : "VEC3"
        },
        {
            "bufferView" : 14,
            "componentType" : 5126,
            "count" : 85,
            "type" : "VEC3"
        },
        {
            "bufferView" : 15,
            "componentType" : 5126,
            "count" : 85,
            "type" : "VEC2"
        },
        {
            "bufferView" : 16,
            "componentType" : 5123,
            "count" : 324,
            "type" : "SCALAR"
        },
        {
            "bufferView" : 17,
            "componentType" : 5126,
            "count" : 86,
            "max" : [
                0.01418086513876915,
                -0.005573336035013199,
                0.02795332483947277
            ],
            "min" : [
                0.004819173831492662,
                -0.0066420333459973335,
                0.018448593094944954
            ],
            "type" : "VEC3"
        },
        {
            "bufferView" : 18,
            "componentType" : 5126,
            "count" : 86,
            "type" : "VEC3"
        },
        {
            "bufferView" : 19,
            "componentType" : 5126,
            "count" : 86,
            "type" : "VEC2"
        },
        {
            "bufferView" : 20,
            "componentType" : 5123,
            "count" : 156,
            "type" : "SCALAR"
        },
        {
            "bufferView" : 21,
            "componentType" : 5126,
            "count" : 226,
            "max" : [
                0.013063312508165836,
                0.0031309034675359726,
                0.017650585621595383
            ],
            "min" : [
                -0.01306464709341526,
                -0.021771248430013657,
                0.0006611011922359467
            ],
            "type" : "VEC3"
        },
        {
            "bufferView" : 22,
            "componentType" : 5126,
            "count" : 226,
            "type" : "VEC3"
        },
        {
            "bufferView" : 23,
            "componentType" : 5126,
            "count" : 226,
            "type" : "VEC2"
        },
        {
            "bufferView" : 24,
            "componentType" : 5123,
            "count" : 1050,
            "type" : "SCALAR"
        },
        {
            "bufferView" : 25,
            "componentType" : 5126,
            "count" : 209,
            "max" : [
                0.0028702577110379934,
                -0.020102789625525475,
                0.03487386927008629
            ],
            "min" : [
                -0.009756366722285748,
                -0.039277367293834686,
                0.009994224645197392
            ],
            "type" : "VEC3"
        },
        {
            "bufferView" : 26,
            "componentType" : 5126,
            "count" : 209,
            "type" : "VEC3"
        },
        {
            "bufferView" : 27,
            "componentType" : 5126,
            "count" : 209,
            "type" : "VEC2"
        },
        {
            "bufferView" : 28,
            "componentType" : 5123,
            "count" : 921,
            "type" : "SCALAR"
        }
    ],
    "bufferViews" : [
        {
            "buffer" : 0,
            "byteLength" : 20316,
            "byteOffset" : 0
        },
        {
            "buffer" : 0,
            "byteLength" : 20316,
            "byteOffset" : 20316
        },
        {
            "buffer" : 0,
            "byteLength" : 13544,
            "byteOffset" : 40632
        },
        {
            "buffer" : 0,
            "byteLength" : 13158,
            "byteOffset" : 54176
        },
        {
            "buffer" : 0,
            "byteLength" : 27340,
            "byteOffset" : 67336
        },
        {
            "buffer" : 0,
            "byteLength" : 2244,
            "byteOffset" : 94676
        },
        {
            "buffer" : 0,
            "byteLength" : 2244,
            "byteOffset" : 96920
        },
        {
            "buffer" : 0,
            "byteLength" : 1496,
            "byteOffset" : 99164
        },
        {
            "buffer" : 0,
            "byteLength" : 1554,
            "byteOffset" : 100660
        },
        {
            "buffer" : 0,
            "byteLength" : 1020,
            "byteOffset" : 102216
        },
        {
            "buffer" : 0,
            "byteLength" : 1020,
            "byteOffset" : 103236
        },
        {
            "buffer" : 0,
            "byteLength" : 680,
            "byteOffset" : 104256
        },
        {
            "buffer" : 0,
            "byteLength" : 648,
            "byteOffset" : 104936
        },
        {
            "buffer" : 0,
            "byteLength" : 1020,
            "byteOffset" : 105584
        },
        {
            "buffer" : 0,
            "byteLength" : 1020,
            "byteOffset" : 106604
        },
        {
            "buffer" : 0,
            "byteLength" : 680,
            "byteOffset" : 107624
        },
        {
            "buffer" : 0,
            "byteLength" : 648,
            "byteOffset" : 108304
        },
        {
            "buffer" : 0,
            "byteLength" : 1032,
            "byteOffset" : 108952
        },
        {
            "buffer" : 0,
            "byteLength" : 1032,
            "byteOffset" : 109984
        },
        {
            "buffer" : 0,
            "byteLength" : 688,
            "byteOffset" : 111016
        },
        {
            "buffer" : 0,
            "byteLength" : 312,
            "byteOffset" : 111704
        },
        {
            "buffer" : 0,
            "byteLength" : 2712,
            "byteOffset" : 112016
        },
        {
            "buffer" : 0,
            "byteLength" : 2712,
            "byteOffset" : 114728
        },
        {
            "buffer" : 0,
            "byteLength" : 1808,
            "byteOffset" : 117440
        },
        {
            "buffer" : 0,
            "byteLength" : 2100,
            "byteOffset" : 119248
        },
        {
            "buffer" : 0,
            "byteLength" : 2508,
            "byteOffset" : 121348
        },
        {
            "buffer" : 0,
            "byteLength" : 2508,
            "byteOffset" : 123856
        },
        {
            "buffer" : 0,
            "byteLength" : 1672,
            "byteOffset" : 126364
        },
        {
            "buffer" : 0,
            "byteLength" : 1842,
            "byteOffset" : 128036
        }
    ],
    "buffers" : [
        {
            "byteLength" : 129880,
            "uri" : "data:application/octet-stream;base64,"
        }
    ]
}
